<?xml version="1.0" encoding="UTF-8" standalone="no"?>
<!-- Created with Inkscape (http://www.inkscape.org/) -->

<svg
   width="297mm"
   height="297mm"
   viewBox="0 0 297 297"
   version="1.1"
   id="svg1"
   xml:space="preserve"
   xmlns="http://www.w3.org/2000/svg"
   xmlns:svg="http://www.w3.org/2000/svg"><defs
     id="defs1" /><circle
     style="fill:#ffffff;stroke-width:0.240696"
     id="path1"
     cx="148.5"
     cy="148.5"
     r="148.5" /><g
     id="layer1"
     style="display:inline"
     transform="matrix(5.1662745,0,0,5.1662745,-370.76165,-526.9752)"><path
       d="m 103.96781,118.29666 v 1.96887 l -6.93859,4.97179 v -1.96888 z m 0.0233,5.50974 v 1.96887 4.97179 h -0.0233 v 27.04899 h -6.915853 v -27.04899 -1.96887 z"
       style="display:inline;fill:#000000;stroke-width:0.335042"
       id="path9" /><path
       d="m 103.96781,130.74706 v -1.96887 h -4.1677 l -2.748153,1.96887 z"
       style="display:inline;fill:#000000;stroke-width:0.264583"
       id="path10" /><path
       d="m 103.99107,125.77527 -4.19096,3.00292 h 4.1677 v 1.96887 h 0.0233 z"
       style="display:inline;fill:#000000;stroke-width:0.264583"
       id="path12" /><path
       d="m 97.051957,130.74706 2.748153,-1.96887 h -2.748153 z"
       style="display:inline;fill:#000000;stroke-width:0.264583"
       id="path11" /><path
       d="m 103.99107,123.8064 -6.939113,4.97179 h 2.748153 l 4.19096,-3.00292 z"
       style="display:inline;fill:#000000;stroke-width:0.264583"
       id="path13" /><path
       d="m 103.96781,118.29666 -6.93859,4.97178 v 1.96888 l 6.93859,-4.97179 z"
       style="display:inline;fill:#000000;stroke-width:0.0969521"
       id="path14" /><path
       d="m 103.96781,109.94161 v 1.96836 l -6.93859,4.97178 v -1.96887 z m 0,4.18889 v 1.96836 l -6.93859,4.97179 v -1.96888 z"
       style="display:inline;fill:#000000;stroke-width:0.0969521"
       id="path15" /><path
       d="m 103.96781,105.80646 -6.93859,4.97179 v 1.96887 l 6.93859,-4.97179 z"
       style="display:inline;fill:#000000;stroke-width:0.0969521"
       id="path16" /><path
       d="m 100.12619,104.5285 -3.09697,2.21899 v 1.96887 l 5.8446,-4.18786 z"
       style="display:inline;fill:#000000;stroke-width:0.0969521"
       id="path17" /></g></svg>
