<?xml version="1.0" encoding="UTF-8"?>
<svg version="1.1" xmlns="http://www.w3.org/2000/svg" width="178" height="66">
<path d="M0 0 C4.40491555 1.06107358 5.35734653 2.47664912 7.70507812 6.18359375 C8.12337891 6.89902344 8.54167969 7.61445312 8.97265625 8.3515625 C9.41802734 9.06699219 9.86339844 9.78242188 10.32226562 10.51953125 C11.4157021 12.28313846 12.47850491 14.0656729 13.53515625 15.8515625 C13.86515625 14.8615625 14.19515625 13.8715625 14.53515625 12.8515625 C15.19515625 12.5215625 15.85515625 12.1915625 16.53515625 11.8515625 C15.87515625 11.5215625 15.21515625 11.1915625 14.53515625 10.8515625 C13.33446919 6.34898601 13.37096213 5.17995074 15.53515625 0.8515625 C24.77515625 0.8515625 34.01515625 0.8515625 43.53515625 0.8515625 C46.53515625 6.8515625 46.53515625 6.8515625 46.53515625 8.8515625 C47.19515625 8.8515625 47.85515625 8.8515625 48.53515625 8.8515625 C48.84453125 7.7171875 49.15390625 6.5828125 49.47265625 5.4140625 C50.53515625 1.8515625 50.53515625 1.8515625 51.53515625 0.8515625 C53.53473989 0.81075467 55.53560879 0.80901894 57.53515625 0.8515625 C58.52515625 3.1615625 59.51515625 5.4715625 60.53515625 7.8515625 C62.75705449 5.62966426 63.46114517 3.76673542 64.53515625 0.8515625 C82.86848958 0.8515625 101.20182292 0.8515625 119.53515625 0.8515625 C120.24099854 0.84632568 120.94684082 0.84108887 121.67407227 0.83569336 C124.481923 0.81498379 127.28975943 0.8019851 130.09765625 0.7890625 C131.08185547 0.78068359 132.06605469 0.77230469 133.08007812 0.76367188 C134.48290039 0.75883789 134.48290039 0.75883789 135.9140625 0.75390625 C136.77588135 0.74866943 137.6377002 0.74343262 138.52563477 0.73803711 C140.53515625 0.8515625 140.53515625 0.8515625 141.53515625 1.8515625 C141.60840793 4.71423817 141.6275383 7.5522815 141.59765625 10.4140625 C141.59314453 11.22037109 141.58863281 12.02667969 141.58398438 12.85742188 C141.57216143 14.85550006 141.55422539 16.85354033 141.53515625 18.8515625 C139.55515625 19.3465625 139.55515625 19.3465625 137.53515625 19.8515625 C137.53515625 20.8415625 137.53515625 21.8315625 137.53515625 22.8515625 C135.88515625 22.8515625 134.23515625 22.8515625 132.53515625 22.8515625 C132.53515625 21.8615625 132.53515625 20.8715625 132.53515625 19.8515625 C131.61992187 19.8515625 130.7046875 19.8515625 129.76171875 19.8515625 C117.68619792 19.8515625 105.61067708 19.8515625 93.53515625 19.8515625 C92.80425781 19.86203613 92.07335937 19.87250977 91.3203125 19.88330078 C88.39196795 19.92478916 85.46367879 19.95074429 82.53515625 19.9765625 C81.51164062 19.99332031 80.488125 20.01007812 79.43359375 20.02734375 C77.96792969 20.03701172 77.96792969 20.03701172 76.47265625 20.046875 C75.57417969 20.05734863 74.67570312 20.06782227 73.75 20.07861328 C71.53515625 19.8515625 71.53515625 19.8515625 69.53515625 17.8515625 C68.96995622 15.19618878 68.79727427 12.56011537 68.53515625 9.8515625 C66.88515625 13.1515625 65.23515625 16.4515625 63.53515625 19.8515625 C61.88515625 19.8515625 60.23515625 19.8515625 58.53515625 19.8515625 C57.21515625 17.2115625 55.89515625 14.5715625 54.53515625 11.8515625 C53.21515625 14.4915625 51.89515625 17.1315625 50.53515625 19.8515625 C48.55515625 19.8515625 46.57515625 19.8515625 44.53515625 19.8515625 C44.11363281 18.85253906 43.69210938 17.85351562 43.2578125 16.82421875 C42.70455408 15.52077942 42.15116174 14.21739693 41.59765625 12.9140625 C41.1809668 11.9250293 41.1809668 11.9250293 40.75585938 10.91601562 C39.52722742 7.64687754 39.52722742 7.64687754 37.53515625 4.8515625 C36.11945502 4.76504639 34.69956125 4.74451346 33.28125 4.75390625 C32.00024414 4.75874023 32.00024414 4.75874023 30.69335938 4.76367188 C29.34661133 4.77624023 29.34661133 4.77624023 27.97265625 4.7890625 C27.07095703 4.79357422 26.16925781 4.79808594 25.24023438 4.80273438 C23.00514311 4.81456025 20.77018188 4.8310403 18.53515625 4.8515625 C18.53515625 5.5115625 18.53515625 6.1715625 18.53515625 6.8515625 C20.44941406 6.79935547 20.44941406 6.79935547 22.40234375 6.74609375 C24.07160146 6.71796019 25.74087335 6.69065957 27.41015625 6.6640625 C28.67279297 6.62635742 28.67279297 6.62635742 29.9609375 6.58789062 C30.76660156 6.57822266 31.57226562 6.56855469 32.40234375 6.55859375 C33.51778564 6.53502808 33.51778564 6.53502808 34.65576172 6.51098633 C35.58606201 6.67957153 35.58606201 6.67957153 36.53515625 6.8515625 C38.75017125 10.174085 38.72926501 10.72887841 38.22265625 14.4765625 C38.12339844 15.27320313 38.02414063 16.06984375 37.921875 16.890625 C37.53515625 18.8515625 37.53515625 18.8515625 36.53515625 19.8515625 C34.38956798 19.93931855 32.24111204 19.95851469 30.09375 19.94921875 C28.78857422 19.94599609 27.48339844 19.94277344 26.13867188 19.93945312 C24.74999935 19.93109651 23.36132748 19.92263155 21.97265625 19.9140625 C20.58007969 19.90904916 19.18750144 19.90448597 17.79492188 19.90039062 C14.37495755 19.88855684 10.95507781 19.8720713 7.53515625 19.8515625 C7.20515625 19.1915625 6.87515625 18.5315625 6.53515625 17.8515625 C4.41043049 17.79769621 2.28531973 17.75883179 0.16015625 17.7265625 C-1.02320313 17.70335938 -2.2065625 17.68015625 -3.42578125 17.65625 C-6.57638192 17.52290021 -6.57638192 17.52290021 -8.46484375 19.8515625 C-11.08984375 19.9765625 -11.08984375 19.9765625 -13.46484375 19.8515625 C-12.98257434 14.73328397 -11.19156842 11.15027874 -8.33984375 6.9765625 C-7.97375 6.38359375 -7.60765625 5.790625 -7.23046875 5.1796875 C-5.07445209 1.99699625 -3.76059641 0.9242503 0 0 Z M74.53515625 4.8515625 C74.53515625 5.5115625 74.53515625 6.1715625 74.53515625 6.8515625 C80.80515625 6.8515625 87.07515625 6.8515625 93.53515625 6.8515625 C93.53515625 6.1915625 93.53515625 5.5315625 93.53515625 4.8515625 C87.26515625 4.8515625 80.99515625 4.8515625 74.53515625 4.8515625 Z M98.53515625 4.8515625 C98.53515625 5.5115625 98.53515625 6.1715625 98.53515625 6.8515625 C104.80515625 6.8515625 111.07515625 6.8515625 117.53515625 6.8515625 C117.53515625 6.1915625 117.53515625 5.5315625 117.53515625 4.8515625 C111.26515625 4.8515625 104.99515625 4.8515625 98.53515625 4.8515625 Z M122.53515625 4.8515625 C122.53515625 7.4915625 122.53515625 10.1315625 122.53515625 12.8515625 C125.83515625 12.8515625 129.13515625 12.8515625 132.53515625 12.8515625 C132.53515625 11.8615625 132.53515625 10.8715625 132.53515625 9.8515625 C133.85515625 9.8515625 135.17515625 9.8515625 136.53515625 9.8515625 C136.53515625 8.2015625 136.53515625 6.5515625 136.53515625 4.8515625 C131.91515625 4.8515625 127.29515625 4.8515625 122.53515625 4.8515625 Z M-0.46484375 5.8515625 C-1.12484375 7.1715625 -1.78484375 8.4915625 -2.46484375 9.8515625 C-0.81484375 9.8515625 0.83515625 9.8515625 2.53515625 9.8515625 C1.87515625 8.5315625 1.21515625 7.2115625 0.53515625 5.8515625 C0.20515625 5.8515625 -0.12484375 5.8515625 -0.46484375 5.8515625 Z M74.53515625 11.8515625 C74.53515625 12.1815625 74.53515625 12.5115625 74.53515625 12.8515625 C80.80515625 13.1815625 87.07515625 13.5115625 93.53515625 13.8515625 C93.53515625 13.1915625 93.53515625 12.5315625 93.53515625 11.8515625 C87.26515625 11.8515625 80.99515625 11.8515625 74.53515625 11.8515625 Z M98.53515625 11.8515625 C98.53515625 12.1815625 98.53515625 12.5115625 98.53515625 12.8515625 C104.80515625 12.8515625 111.07515625 12.8515625 117.53515625 12.8515625 C117.53515625 12.5215625 117.53515625 12.1915625 117.53515625 11.8515625 C111.26515625 11.8515625 104.99515625 11.8515625 98.53515625 11.8515625 Z " fill="#9C238D" transform="translate(36.46484375,-0.8515625)"/>
<path d="M0 0 C1.27617188 0.00483398 1.27617188 0.00483398 2.578125 0.00976562 C3.46757813 0.01814453 4.35703125 0.02652344 5.2734375 0.03515625 C6.170625 0.03966797 7.0678125 0.04417969 7.9921875 0.04882812 C10.21096581 0.06063014 12.42970993 0.07856586 14.6484375 0.09765625 C14.6484375 3.72765625 14.6484375 7.35765625 14.6484375 11.09765625 C15.9684375 11.09765625 17.2884375 11.09765625 18.6484375 11.09765625 C18.63683594 10.38738281 18.62523438 9.67710938 18.61328125 8.9453125 C18.60425781 8.02621094 18.59523438 7.10710938 18.5859375 6.16015625 C18.57433594 5.24363281 18.56273438 4.32710937 18.55078125 3.3828125 C18.6484375 1.09765625 18.6484375 1.09765625 19.6484375 0.09765625 C21.2984375 0.09765625 22.9484375 0.09765625 24.6484375 0.09765625 C24.6484375 3.72765625 24.6484375 7.35765625 24.6484375 11.09765625 C25.9684375 11.09765625 27.2884375 11.09765625 28.6484375 11.09765625 C28.63683594 10.38738281 28.62523437 9.67710938 28.61328125 8.9453125 C28.60425781 8.02621094 28.59523437 7.10710938 28.5859375 6.16015625 C28.57433594 5.24363281 28.56273437 4.32710937 28.55078125 3.3828125 C28.6484375 1.09765625 28.6484375 1.09765625 29.6484375 0.09765625 C31.2984375 0.09765625 32.9484375 0.09765625 34.6484375 0.09765625 C34.6484375 3.72765625 34.6484375 7.35765625 34.6484375 11.09765625 C35.9684375 11.09765625 37.2884375 11.09765625 38.6484375 11.09765625 C38.63683594 10.38738281 38.62523437 9.67710938 38.61328125 8.9453125 C38.60425781 8.02621094 38.59523437 7.10710938 38.5859375 6.16015625 C38.57433594 5.24363281 38.56273437 4.32710937 38.55078125 3.3828125 C38.6484375 1.09765625 38.6484375 1.09765625 39.6484375 0.09765625 C41.2984375 0.09765625 42.9484375 0.09765625 44.6484375 0.09765625 C44.6484375 3.72765625 44.6484375 7.35765625 44.6484375 11.09765625 C58.1784375 11.09765625 71.7084375 11.09765625 85.6484375 11.09765625 C85.6484375 8.45765625 85.6484375 5.81765625 85.6484375 3.09765625 C87.2984375 3.09765625 88.9484375 3.09765625 90.6484375 3.09765625 C90.6484375 9.03765625 90.6484375 14.97765625 90.6484375 21.09765625 C65.8984375 21.09765625 41.1484375 21.09765625 15.6484375 21.09765625 C15.3184375 24.06765625 14.9884375 27.03765625 14.6484375 30.09765625 C13.6484375 31.09765625 13.6484375 31.09765625 11.69897461 31.21118164 C10.8663208 31.20594482 10.03366699 31.20070801 9.17578125 31.1953125 C8.27666016 31.19208984 7.37753906 31.18886719 6.45117188 31.18554688 C5.50564453 31.17716797 4.56011719 31.16878906 3.5859375 31.16015625 C2.63654297 31.15564453 1.68714844 31.15113281 0.70898438 31.14648438 C-1.64455781 31.13465753 -3.99806782 31.11672146 -6.3515625 31.09765625 C-6.3515625 27.79765625 -6.3515625 24.49765625 -6.3515625 21.09765625 C-1.4015625 21.09765625 3.5484375 21.09765625 8.6484375 21.09765625 C8.6484375 19.77765625 8.6484375 18.45765625 8.6484375 17.09765625 C3.6984375 17.09765625 -1.2515625 17.09765625 -6.3515625 17.09765625 C-6.3515625 11.81765625 -6.3515625 6.53765625 -6.3515625 1.09765625 C-4.00303722 -0.07660639 -2.61382185 -0.01742548 0 0 Z M-0.3515625 6.09765625 C-0.3515625 7.74765625 -0.3515625 9.39765625 -0.3515625 11.09765625 C2.6184375 11.09765625 5.5884375 11.09765625 8.6484375 11.09765625 C8.6484375 9.44765625 8.6484375 7.79765625 8.6484375 6.09765625 C5.6784375 6.09765625 2.7084375 6.09765625 -0.3515625 6.09765625 Z " fill="#9E238B" transform="translate(87.3515625,32.90234375)"/>
<path d="M0 0 C0.73089844 0.00410889 1.46179688 0.00821777 2.21484375 0.01245117 C3.01148438 0.01438477 3.808125 0.01631836 4.62890625 0.01831055 C5.46164063 0.03055664 6.294375 0.04280273 7.15234375 0.05541992 C7.98507813 0.05606445 8.8178125 0.05670898 9.67578125 0.05737305 C15.8714786 0.10248735 15.8714786 0.10248735 18.15234375 1.24291992 C18.15234375 4.54291992 18.15234375 7.84291992 18.15234375 11.24291992 C31.35234375 11.24291992 44.55234375 11.24291992 58.15234375 11.24291992 C58.15234375 8.60291992 58.15234375 5.96291992 58.15234375 3.24291992 C60.13234375 3.24291992 62.11234375 3.24291992 64.15234375 3.24291992 C64.17918687 6.05548273 64.19910563 8.86779233 64.21484375 11.68041992 C64.22322266 12.48286133 64.23160156 13.28530273 64.24023438 14.11206055 C64.24885805 16.15587213 64.20462525 18.19975894 64.15234375 20.24291992 C63.15234375 21.24291992 63.15234375 21.24291992 61.36167908 21.36317444 C60.58224442 21.36095383 59.80280975 21.35873322 58.99975586 21.35644531 C58.1189183 21.35636978 57.23808075 21.35629425 56.33055115 21.35621643 C55.37326614 21.35105515 54.41598114 21.34589386 53.4296875 21.34057617 C52.45447647 21.33916122 51.47926544 21.33774628 50.47450256 21.33628845 C47.34625232 21.33067125 44.21807252 21.31811585 41.08984375 21.30541992 C38.97461041 21.30040714 36.85937594 21.29584385 34.74414062 21.29174805 C29.54685079 21.28069624 24.3496023 21.26394138 19.15234375 21.24291992 C19.06146484 22.20004883 19.06146484 22.20004883 18.96875 23.17651367 C18.88496094 24.00280273 18.80117188 24.8290918 18.71484375 25.68041992 C18.63363281 26.50413086 18.55242188 27.3278418 18.46875 28.17651367 C18.15234375 30.24291992 18.15234375 30.24291992 17.15234375 31.24291992 C14.93379111 31.33075534 12.71245879 31.34986601 10.4921875 31.34057617 C9.4954879 31.33845375 9.4954879 31.33845375 8.47865295 31.33628845 C6.34900476 31.3306751 4.21946036 31.31812046 2.08984375 31.30541992 C0.64909006 31.30040664 -0.79166528 31.29584343 -2.23242188 31.29174805 C-5.77090583 31.28155069 -9.30916438 31.26197823 -12.84765625 31.24291992 C-12.84765625 24.64291992 -12.84765625 18.04291992 -12.84765625 11.24291992 C-11.19765625 11.24291992 -9.54765625 11.24291992 -7.84765625 11.24291992 C-7.84765625 14.54291992 -7.84765625 17.84291992 -7.84765625 21.24291992 C-1.24765625 21.24291992 5.35234375 21.24291992 12.15234375 21.24291992 C12.15234375 19.92291992 12.15234375 18.60291992 12.15234375 17.24291992 C6.87234375 17.24291992 1.59234375 17.24291992 -3.84765625 17.24291992 C-3.88890625 14.80916992 -3.93015625 12.37541992 -3.97265625 9.86791992 C-3.99086426 9.10302246 -4.00907227 8.338125 -4.02783203 7.55004883 C-4.04246795 5.78004718 -3.94694139 4.01019537 -3.84765625 2.24291992 C-1.84765625 0.24291992 -1.84765625 0.24291992 0 0 Z M2.15234375 6.24291992 C2.15234375 7.89291992 2.15234375 9.54291992 2.15234375 11.24291992 C5.45234375 11.24291992 8.75234375 11.24291992 12.15234375 11.24291992 C12.15234375 9.59291992 12.15234375 7.94291992 12.15234375 6.24291992 C8.85234375 6.24291992 5.55234375 6.24291992 2.15234375 6.24291992 Z " fill="#9382BC" transform="translate(12.84765625,32.757080078125)"/>
<path d="M0 0 C4.40491555 1.06107358 5.35734653 2.47664912 7.70507812 6.18359375 C8.12337891 6.89902344 8.54167969 7.61445312 8.97265625 8.3515625 C9.41802734 9.06699219 9.86339844 9.78242188 10.32226562 10.51953125 C11.4157021 12.28313846 12.47850491 14.0656729 13.53515625 15.8515625 C13.86515625 14.8615625 14.19515625 13.8715625 14.53515625 12.8515625 C15.19515625 12.5215625 15.85515625 12.1915625 16.53515625 11.8515625 C15.87515625 11.5215625 15.21515625 11.1915625 14.53515625 10.8515625 C13.33446919 6.34898601 13.37096213 5.17995074 15.53515625 0.8515625 C22.13515625 0.8515625 28.73515625 0.8515625 35.53515625 0.8515625 C35.53515625 1.8415625 35.53515625 2.8315625 35.53515625 3.8515625 C36.19515625 4.1815625 36.85515625 4.5115625 37.53515625 4.8515625 C31.26515625 4.8515625 24.99515625 4.8515625 18.53515625 4.8515625 C18.53515625 5.5115625 18.53515625 6.1715625 18.53515625 6.8515625 C20.44941406 6.79935547 20.44941406 6.79935547 22.40234375 6.74609375 C24.07160146 6.71796019 25.74087335 6.69065957 27.41015625 6.6640625 C28.67279297 6.62635742 28.67279297 6.62635742 29.9609375 6.58789062 C30.76660156 6.57822266 31.57226562 6.56855469 32.40234375 6.55859375 C33.51778564 6.53502808 33.51778564 6.53502808 34.65576172 6.51098633 C35.58606201 6.67957153 35.58606201 6.67957153 36.53515625 6.8515625 C38.75017125 10.174085 38.72926501 10.72887841 38.22265625 14.4765625 C38.12339844 15.27320313 38.02414063 16.06984375 37.921875 16.890625 C37.53515625 18.8515625 37.53515625 18.8515625 36.53515625 19.8515625 C34.38956798 19.93931855 32.24111204 19.95851469 30.09375 19.94921875 C28.78857422 19.94599609 27.48339844 19.94277344 26.13867188 19.93945312 C24.74999935 19.93109651 23.36132748 19.92263155 21.97265625 19.9140625 C20.58007969 19.90904916 19.18750144 19.90448597 17.79492188 19.90039062 C14.37495755 19.88855684 10.95507781 19.8720713 7.53515625 19.8515625 C7.20515625 19.1915625 6.87515625 18.5315625 6.53515625 17.8515625 C4.41043049 17.79769621 2.28531973 17.75883179 0.16015625 17.7265625 C-1.02320313 17.70335938 -2.2065625 17.68015625 -3.42578125 17.65625 C-6.57638192 17.52290021 -6.57638192 17.52290021 -8.46484375 19.8515625 C-11.08984375 19.9765625 -11.08984375 19.9765625 -13.46484375 19.8515625 C-12.98257434 14.73328397 -11.19156842 11.15027874 -8.33984375 6.9765625 C-7.97375 6.38359375 -7.60765625 5.790625 -7.23046875 5.1796875 C-5.07445209 1.99699625 -3.76059641 0.9242503 0 0 Z M-0.46484375 5.8515625 C-1.12484375 7.1715625 -1.78484375 8.4915625 -2.46484375 9.8515625 C-0.81484375 9.8515625 0.83515625 9.8515625 2.53515625 9.8515625 C1.87515625 8.5315625 1.21515625 7.2115625 0.53515625 5.8515625 C0.20515625 5.8515625 -0.12484375 5.8515625 -0.46484375 5.8515625 Z " fill="#B170AE" transform="translate(36.46484375,-0.8515625)"/>
<path d="M0 0 C1.27617188 0.00483398 1.27617188 0.00483398 2.578125 0.00976562 C3.46757813 0.01814453 4.35703125 0.02652344 5.2734375 0.03515625 C6.170625 0.03966797 7.0678125 0.04417969 7.9921875 0.04882812 C10.21096581 0.06063014 12.42970993 0.07856586 14.6484375 0.09765625 C14.6484375 4.05765625 14.6484375 8.01765625 14.6484375 12.09765625 C15.9684375 12.42765625 17.2884375 12.75765625 18.6484375 13.09765625 C17.9884375 13.09765625 17.3284375 13.09765625 16.6484375 13.09765625 C15.27377429 17.73714459 15.22886223 22.49405216 14.9296875 27.296875 C14.6484375 30.09765625 14.6484375 30.09765625 13.6484375 31.09765625 C12.1597189 31.18435057 10.6669925 31.20469119 9.17578125 31.1953125 C8.27666016 31.19208984 7.37753906 31.18886719 6.45117188 31.18554688 C5.50564453 31.17716797 4.56011719 31.16878906 3.5859375 31.16015625 C2.63654297 31.15564453 1.68714844 31.15113281 0.70898438 31.14648438 C-1.64455781 31.13465753 -3.99806782 31.11672146 -6.3515625 31.09765625 C-6.3515625 27.79765625 -6.3515625 24.49765625 -6.3515625 21.09765625 C-1.4015625 21.09765625 3.5484375 21.09765625 8.6484375 21.09765625 C8.6484375 19.77765625 8.6484375 18.45765625 8.6484375 17.09765625 C3.6984375 17.09765625 -1.2515625 17.09765625 -6.3515625 17.09765625 C-6.3515625 11.81765625 -6.3515625 6.53765625 -6.3515625 1.09765625 C-4.00303722 -0.07660639 -2.61382185 -0.01742548 0 0 Z M-0.3515625 6.09765625 C-0.3515625 7.74765625 -0.3515625 9.39765625 -0.3515625 11.09765625 C2.6184375 11.09765625 5.5884375 11.09765625 8.6484375 11.09765625 C8.6484375 9.44765625 8.6484375 7.79765625 8.6484375 6.09765625 C5.6784375 6.09765625 2.7084375 6.09765625 -0.3515625 6.09765625 Z " fill="#DB098A" transform="translate(87.3515625,32.90234375)"/>
<path d="M0 0 C2.64 0 5.28 0 8 0 C11 5.75 11 5.75 11 8 C11.66 8 12.32 8 13 8 C13.309375 6.865625 13.61875 5.73125 13.9375 4.5625 C15 1 15 1 16 0 C17.99958364 -0.04080783 20.00045254 -0.04254356 22 0 C22.99 2.31 23.98 4.62 25 7 C27.22189824 4.77810176 27.92598892 2.91517292 29 0 C30.32 0.33 31.64 0.66 33 1 C32.4740625 2.6396875 32.4740625 2.6396875 31.9375 4.3125 C30.66960546 7.90920373 30.66960546 7.90920373 32 11 C31.22265625 13.04296875 31.22265625 13.04296875 30.0625 15.1875 C29.68222656 15.90292969 29.30195312 16.61835938 28.91015625 17.35546875 C28.60980469 17.89816406 28.30945313 18.44085937 28 19 C26.35 19 24.7 19 23 19 C21.68 16.36 20.36 13.72 19 11 C17.68 13.64 16.36 16.28 15 19 C13.02 19 11.04 19 9 19 C7.9955866 16.7101766 6.99632388 14.4183401 6 12.125 C5.71382813 11.47402344 5.42765625 10.82304687 5.1328125 10.15234375 C3 5.2265625 3 5.2265625 3 3 C2.01 3 1.02 3 0 3 C0 2.01 0 1.02 0 0 Z " fill="#DE088A" transform="translate(72,0)"/>
<path d="M0 0 C2.64 0 5.28 0 8 0 C11 5.75 11 5.75 11 8 C11.66 8 12.32 8 13 8 C13.66 5.69 14.32 3.38 15 1 C16.32 0.67 17.64 0.34 19 0 C18.01 1.485 18.01 1.485 17 3 C16.8627866 6.04871029 17.00411684 9.0413216 17.125 12.08984375 C16.99967183 15.00764021 16.51442537 16.5449745 15 19 C13.02 19 11.04 19 9 19 C7.9955866 16.7101766 6.99632388 14.4183401 6 12.125 C5.71382813 11.47402344 5.42765625 10.82304687 5.1328125 10.15234375 C3 5.2265625 3 5.2265625 3 3 C2.01 3 1.02 3 0 3 C0 2.01 0 1.02 0 0 Z " fill="#E71290" transform="translate(72,0)"/>
<path d="M0 0 C7.92 0 15.84 0 24 0 C24 1.32 24 2.64 24 4 C21.03 4 18.06 4 15 4 C15.01160156 4.83144531 15.02320313 5.66289063 15.03515625 6.51953125 C15.04417969 7.60621094 15.05320312 8.69289063 15.0625 9.8125 C15.07410156 10.89144531 15.08570313 11.97039063 15.09765625 13.08203125 C15 16 15 16 14 19 C12.68 19 11.36 19 10 19 C10 14.05 10 9.1 10 4 C6.7 4 3.4 4 0 4 C0 2.68 0 1.36 0 0 Z " fill="#699CCE" transform="translate(0,0)"/>
<path d="M0 0 C1.65 0 3.3 0 5 0 C5.09507063 6.43311296 5.15316726 12.65758005 4 19 C2.68 19 1.36 19 0 19 C0 12.73 0 6.46 0 0 Z " fill="#33A8DD" transform="translate(0,44)"/>
<path d="M0 0 C2.64 0 5.28 0 8 0 C10.92004922 5.48969254 11.74076947 9.90076262 10 16 C9.34 16.33 8.68 16.66 8 17 C7.16235732 15.04350603 6.33000941 13.08474444 5.5 11.125 C5.0359375 10.03445313 4.571875 8.94390625 4.09375 7.8203125 C3 5 3 5 3 3 C2.01 3 1.02 3 0 3 C0 2.01 0 1.02 0 0 Z " fill="#DA3893" transform="translate(72,0)"/>
<path d="M0 0 C-0.66 5.28 -1.32 10.56 -2 16 C1.96 16 5.92 16 10 16 C10 16.33 10 16.66 10 17 C5.05 17 0.1 17 -5 17 C-5 11.72 -5 6.44 -5 1 C-3 0 -3 0 0 0 Z " fill="#DD258E" transform="translate(86,33)"/>
<path d="M0 0 C4.95 0 9.9 0 15 0 C15 0.33 15 0.66 15 1 C11.37 1 7.74 1 4 1 C3.67 3.64 3.34 6.28 3 9 C8.61 9 14.22 9 20 9 C20 9.33 20 9.66 20 10 C13.4 10 6.8 10 0 10 C0 6.7 0 3.4 0 0 Z " fill="#D2248A" transform="translate(81,54)"/>
<path d="M0 0 C2.125 0.375 2.125 0.375 4 1 C5.10844919 4.32534757 4.84454356 6.62182575 4 10 C2.68 10.33 1.36 10.66 0 11 C-1.84651134 7.88401212 -2.38079379 5.61754103 -2 2 C-1.34 1.34 -0.68 0.68 0 0 Z " fill="#BA6BA8" transform="translate(56,55)"/>
<path d="M0 0 C1.9375 0.6875 1.9375 0.6875 4 2 C5.08835706 4.95411203 5.25203613 6.37831087 4.0625 9.3125 C3.5365625 10.1478125 3.5365625 10.1478125 3 11 C1.68 10.67 0.36 10.34 -1 10 C-1.8403457 6.63861721 -2.17718642 4.29612199 -1 1 C-0.67 0.67 -0.34 0.34 0 0 Z " fill="#AE77B2" transform="translate(47,55)"/>
<path d="M0 0 C1.32 0.33 2.64 0.66 4 1 C4.84454356 4.37817425 5.10844919 6.67465243 4 10 C2.68 10.33 1.36 10.66 0 11 C-1.4606285 8.35261084 -2 7.10551666 -2 4 C-1 1.8125 -1 1.8125 0 0 Z " fill="#90288C" transform="translate(148,23)"/>
<path d="M0 0 C1.32 0.66 2.64 1.32 4 2 C4 2.99 4 3.98 4 5 C4.33 5.99 4.66 6.98 5 8 C4.01 8.99 3.02 9.98 2 11 C0.68 10.34 -0.64 9.68 -2 9 C-2 8.01 -2 7.02 -2 6 C-2.33 5.01 -2.66 4.02 -3 3 C-2.01 2.01 -1.02 1.02 0 0 Z " fill="#802B8D" transform="translate(158,23)"/>
<path d="M0 0 C1.32 0.66 2.64 1.32 4 2 C4 4.31 4 6.62 4 9 C2.02 9.99 2.02 9.99 0 11 C-1.5625 9.3125 -1.5625 9.3125 -3 7 C-2.75925978 3.62963689 -2.41201979 2.41201979 0 0 Z " fill="#8291C6" transform="translate(24,21)"/>
<path d="M0 0 C2 1.125 2 1.125 4 3 C4.375 6.0625 4.375 6.0625 4 9 C3.34 9.66 2.68 10.32 2 11 C-0.125 10.625 -0.125 10.625 -2 10 C-2.79198196 7.14886495 -3.21481122 5.55237171 -2.125 2.75 C-1 1 -1 1 0 0 Z " fill="#6A9BD2" transform="translate(15,21)"/>
<path d="M0 0 C0.99 0.33 1.98 0.66 3 1 C2.91621094 1.66386719 2.83242187 2.32773437 2.74609375 3.01171875 C1.94574958 9.54720848 1.94574958 9.54720848 3 16 C1.35 16 -0.3 16 -2 16 C-1.34 10.72 -0.68 5.44 0 0 Z " fill="#E9118F" transform="translate(86,33)"/>
<path d="M0 0 C2.97 0 5.94 0 9 0 C8.34 1.32 7.68 2.64 7 4 C4.69 4 2.38 4 0 4 C0 2.68 0 1.36 0 0 Z " fill="#E5038C" transform="translate(89,45)"/>
<path d="M0 0 C3.3 0 6.6 0 10 0 C10 0.99 10 1.98 10 3 C6.7 3 3.4 3 0 3 C0 2.01 0 1.02 0 0 Z " fill="#46A4DF" transform="translate(0,0)"/>
<path d="M0 0 C0.99 0 1.98 0 3 0 C3 2.64 3 5.28 3 8 C1.68 8 0.36 8 -1 8 C-0.67 5.36 -0.34 2.72 0 0 Z " fill="#EA1291" transform="translate(85,55)"/>
<path d="M0 0 C0.66 0.33 1.32 0.66 2 1 C2 4.63 2 8.26 2 12 C1.01 12 0.02 12 -1 12 C-0.67 8.04 -0.34 4.08 0 0 Z " fill="#E22792" transform="translate(82,7)"/>
<path d="M0 0 C1.65 0 3.3 0 5 0 C5 3.96 5 7.92 5 12 C3.23934164 9.35901246 2.47277101 8.0257345 2 5 C2.33 4.01 2.66 3.02 3 2 C2.01 1.34 1.02 0.68 0 0 Z " fill="#43A4D5" transform="translate(0,44)"/>
<path d="M0 0 C1.98 0.495 1.98 0.495 4 1 C3.34 2.98 2.68 4.96 2 7 C1.01 6.67 0.02 6.34 -1 6 C-0.67 4.02 -0.34 2.04 0 0 Z " fill="#D20E8A" transform="translate(101,0)"/>
<path d="M0 0 C2.31 0 4.62 0 7 0 C5.68 1.65 4.36 3.3 3 5 C3 4.34 3 3.68 3 3 C2.01 3 1.02 3 0 3 C0 2.01 0 1.02 0 0 Z " fill="#D5459A" transform="translate(72,0)"/>
<path d="M0 0 C0.66 0.33 1.32 0.66 2 1 C2 2.98 2 4.96 2 7 C1.01 7 0.02 7 -1 7 C-0.67 4.69 -0.34 2.38 0 0 Z " fill="#7697CC" transform="translate(17,23)"/>
</svg>
